<svg id="visual" viewBox="0 0 480 100" width="480" height="100" xmlns="http://www.w3.org/2000/svg" xmlns:xlink="http://www.w3.org/1999/xlink" version="1.1"><path d="M0 34L6.2 34.5C12.3 35 24.7 36 37 38.8C49.3 41.7 61.7 46.3 74 49.7C86.3 53 98.7 55 111 55C123.3 55 135.7 53 148 53.7C160.3 54.3 172.7 57.7 185 60.5C197.3 63.3 209.7 65.7 221.8 64.7C234 63.7 246 59.3 258.2 55.2C270.3 51 282.7 47 295 46C307.3 45 319.7 47 332 47.7C344.3 48.3 356.7 47.7 369 44.7C381.3 41.7 393.7 36.3 406 34.8C418.3 33.3 430.7 35.7 443 38.5C455.3 41.3 467.7 44.7 473.8 46.3L480 48L480 101L473.8 101C467.7 101 455.3 101 443 101C430.7 101 418.3 101 406 101C393.7 101 381.3 101 369 101C356.7 101 344.3 101 332 101C319.7 101 307.3 101 295 101C282.7 101 270.3 101 258.2 101C246 101 234 101 221.8 101C209.7 101 197.3 101 185 101C172.7 101 160.3 101 148 101C135.7 101 123.3 101 111 101C98.7 101 86.3 101 74 101C61.7 101 49.3 101 37 101C24.7 101 12.3 101 6.2 101L0 101Z" fill="#1e97db" stroke-linecap="round" stroke-linejoin="miter"></path></svg>