<svg id="visual" viewBox="0 0 480 100" width="480" height="100" xmlns="http://www.w3.org/2000/svg" xmlns:xlink="http://www.w3.org/1999/xlink" version="1.1"><path d="M0 56L6.2 55.7C12.3 55.3 24.7 54.7 37 51C49.3 47.3 61.7 40.7 74 41C86.3 41.3 98.7 48.7 111 54.3C123.3 60 135.7 64 148 63C160.3 62 172.7 56 185 49.7C197.3 43.3 209.7 36.7 221.8 38.3C234 40 246 50 258.2 50.2C270.3 50.3 282.7 40.7 295 39.3C307.3 38 319.7 45 332 46.5C344.3 48 356.7 44 369 44.3C381.3 44.7 393.7 49.3 406 49.3C418.3 49.3 430.7 44.7 443 46.7C455.3 48.7 467.7 57.3 473.8 61.7L480 66L480 101L473.8 101C467.7 101 455.3 101 443 101C430.7 101 418.3 101 406 101C393.7 101 381.3 101 369 101C356.7 101 344.3 101 332 101C319.7 101 307.3 101 295 101C282.7 101 270.3 101 258.2 101C246 101 234 101 221.8 101C209.7 101 197.3 101 185 101C172.7 101 160.3 101 148 101C135.7 101 123.3 101 111 101C98.7 101 86.3 101 74 101C61.7 101 49.3 101 37 101C24.7 101 12.3 101 6.2 101L0 101Z" fill="#1e97db" stroke-linecap="round" stroke-linejoin="miter"></path></svg>