<svg id="visual" viewBox="0 0 480 100" width="480" height="100" xmlns="http://www.w3.org/2000/svg" xmlns:xlink="http://www.w3.org/1999/xlink" version="1.1"><path d="M0 48L6.2 51C12.3 54 24.7 60 37 57C49.3 54 61.7 42 74 39.7C86.3 37.3 98.7 44.7 111 49.7C123.3 54.7 135.7 57.3 148 53.8C160.3 50.3 172.7 40.7 185 39.3C197.3 38 209.7 45 221.8 47.8C234 50.7 246 49.3 258.2 46.8C270.3 44.3 282.7 40.7 295 38.3C307.3 36 319.7 35 332 40.3C344.3 45.7 356.7 57.3 369 60C381.3 62.7 393.7 56.3 406 53.5C418.3 50.7 430.7 51.3 443 52.8C455.3 54.3 467.7 56.7 473.8 57.8L480 59L480 101L473.8 101C467.7 101 455.3 101 443 101C430.7 101 418.3 101 406 101C393.7 101 381.3 101 369 101C356.7 101 344.3 101 332 101C319.7 101 307.3 101 295 101C282.7 101 270.3 101 258.2 101C246 101 234 101 221.8 101C209.7 101 197.3 101 185 101C172.7 101 160.3 101 148 101C135.7 101 123.3 101 111 101C98.7 101 86.3 101 74 101C61.7 101 49.3 101 37 101C24.7 101 12.3 101 6.2 101L0 101Z" fill="#1e97db" stroke-linecap="round" stroke-linejoin="miter"></path></svg>