<svg id="visual" viewBox="0 0 480 100" width="480" height="100" xmlns="http://www.w3.org/2000/svg" xmlns:xlink="http://www.w3.org/1999/xlink" version="1.1"><path d="M0 41L8.8 40C17.7 39 35.3 37 53.2 36.2C71 35.3 89 35.7 106.8 38.7C124.7 41.7 142.3 47.3 160 49.8C177.7 52.3 195.3 51.7 213.2 48.5C231 45.3 249 39.7 266.8 37.3C284.7 35 302.3 36 320 38.3C337.7 40.7 355.3 44.3 373.2 47.3C391 50.3 409 52.7 426.8 52.3C444.7 52 462.3 49 471.2 47.5L480 46L480 101L471.2 101C462.3 101 444.7 101 426.8 101C409 101 391 101 373.2 101C355.3 101 337.7 101 320 101C302.3 101 284.7 101 266.8 101C249 101 231 101 213.2 101C195.3 101 177.7 101 160 101C142.3 101 124.7 101 106.8 101C89 101 71 101 53.2 101C35.3 101 17.7 101 8.8 101L0 101Z" fill="#1e97db" stroke-linecap="round" stroke-linejoin="miter"></path></svg>