<svg id="visual" viewBox="0 0 480 100" width="480" height="100" xmlns="http://www.w3.org/2000/svg" xmlns:xlink="http://www.w3.org/1999/xlink" version="1.1"><path d="M0 38L6.2 41.5C12.3 45 24.7 52 37 53.8C49.3 55.7 61.7 52.3 74 52.3C86.3 52.3 98.7 55.7 111 52.8C123.3 50 135.7 41 148 42C160.3 43 172.7 54 185 57.8C197.3 61.7 209.7 58.3 221.8 58.2C234 58 246 61 258.2 62.8C270.3 64.7 282.7 65.3 295 60C307.3 54.7 319.7 43.3 332 41C344.3 38.7 356.7 45.3 369 50.5C381.3 55.7 393.7 59.3 406 60.7C418.3 62 430.7 61 443 59.3C455.3 57.7 467.7 55.3 473.8 54.2L480 53L480 101L473.8 101C467.7 101 455.3 101 443 101C430.7 101 418.3 101 406 101C393.7 101 381.3 101 369 101C356.7 101 344.3 101 332 101C319.7 101 307.3 101 295 101C282.7 101 270.3 101 258.2 101C246 101 234 101 221.8 101C209.7 101 197.3 101 185 101C172.7 101 160.3 101 148 101C135.7 101 123.3 101 111 101C98.7 101 86.3 101 74 101C61.7 101 49.3 101 37 101C24.7 101 12.3 101 6.2 101L0 101Z" fill="#1e97db" stroke-linecap="round" stroke-linejoin="miter"></path></svg>